<svg width="64" height="64" viewBox="0 0 64 64" fill="none" xmlns="http://www.w3.org/2000/svg">
<g clip-path="url(#clip0_3_44)">
<path d="M58.9088 10.9297V52.5078C58.9088 54.3457 58.1787 56.1083 56.8791 57.4079C55.5795 58.7074 53.8169 59.4375 51.9791 59.4375H17.3306C15.4928 59.4375 13.7302 58.7074 12.4306 57.4079C11.131 56.1083 10.4009 54.3457 10.4009 52.5078V10.9297C10.4009 9.09182 11.131 7.32923 12.4306 6.02966C13.7302 4.73009 15.4928 4 17.3306 4H51.9791C53.8169 4 55.5795 4.73009 56.8791 6.02966C58.1787 7.32923 58.9088 9.09182 58.9088 10.9297Z" stroke="white" stroke-width="5.5" stroke-linecap="round" stroke-linejoin="round"/>
<path d="M6 17.8594H12.523" stroke="white" stroke-width="4.62822" stroke-linecap="round" stroke-linejoin="round"/>
<path d="M6 31.7187H12.523" stroke="white" stroke-width="4.62822" stroke-linecap="round" stroke-linejoin="round"/>
<path d="M6 45.5781H12.523" stroke="white" stroke-width="4.62822" stroke-linecap="round" stroke-linejoin="round"/>
<g clip-path="url(#clip1_3_44)">
<path d="M26.127 24.8594L19.1973 31.7891L26.127 38.7188" stroke="white" stroke-width="4.5" stroke-linecap="round" stroke-linejoin="round"/>
<path d="M43.4512 24.8594L50.3809 31.7891L43.4512 38.7188" stroke="white" stroke-width="4.5" stroke-linecap="round" stroke-linejoin="round"/>
<path d="M38.2539 17.9297L31.3242 45.6484" stroke="white" stroke-width="4.5" stroke-linecap="round" stroke-linejoin="round"/>
</g>
</g>
<defs>
<clipPath id="clip0_3_44">
<rect width="64" height="64" fill="white"/>
</clipPath>
<clipPath id="clip1_3_44">
<rect width="41.5781" height="41.5781" fill="white" transform="translate(14 11)"/>
</clipPath>
</defs>
</svg>
