<svg width="64" height="64" viewBox="0 0 64 64" fill="none" xmlns="http://www.w3.org/2000/svg">
<rect width="64" height="64" rx="32" fill="white"/>
<path d="M32 4C16.5375 4 4 16.8625 4 32.7125C4 45.4 12.025 56.15 23.15 59.95C23.306 59.9839 23.4653 60.0007 23.625 60C24.6625 60 25.0625 59.2375 25.0625 58.575C25.0625 57.8875 25.0375 56.0875 25.025 53.6875C24.0988 53.9046 23.1513 54.0178 22.2 54.025C16.8125 54.025 15.5875 49.8375 15.5875 49.8375C14.3125 46.525 12.475 45.6375 12.475 45.6375C10.0375 43.925 12.4625 43.875 12.65 43.875H12.6625C15.475 44.125 16.95 46.85 16.95 46.85C18.35 49.3 20.225 49.9875 21.9 49.9875C23.0075 49.9654 24.098 49.7098 25.1 49.2375C25.35 47.3875 26.075 46.125 26.875 45.4C20.6625 44.675 14.125 42.2125 14.125 31.2125C14.125 28.075 15.2125 25.5125 17 23.5125C16.7125 22.7875 15.75 19.8625 17.275 15.9125C17.4796 15.8636 17.6898 15.8425 17.9 15.85C18.9125 15.85 21.2 16.2375 24.975 18.8625C29.5619 17.5791 34.4131 17.5791 39 18.8625C42.775 16.2375 45.0625 15.85 46.075 15.85C46.2852 15.8425 46.4954 15.8636 46.7 15.9125C48.225 19.8625 47.2625 22.7875 46.975 23.5125C48.7625 25.525 49.85 28.0875 49.85 31.2125C49.85 42.2375 43.3 44.6625 37.0625 45.375C38.0625 46.2625 38.9625 48.0125 38.9625 50.6875C38.9625 54.525 38.925 57.625 38.925 58.5625C38.925 59.2375 39.3125 60 40.35 60C40.5179 60.0007 40.6855 59.984 40.85 59.95C51.9875 56.15 60 45.3875 60 32.7125C60 16.8625 47.4625 4 32 4Z" fill="black"/>
</svg>
